<?xml version="1.0" encoding="utf-8"?>
<!-- Generator: Adobe Illustrator 21.0.0, SVG Export Plug-In . SVG Version: 6.00 Build 0)  -->
<svg version="1.1" id="Layer_1" xmlns="http://www.w3.org/2000/svg" xmlns:xlink="http://www.w3.org/1999/xlink" x="0px" y="0px"
	 viewBox="0 0 24 24" style="enable-background:new 0 0 24 24;" xml:space="preserve">
<style type="text/css">
	.st0{fill:none;}
	.st1{fill-rule:evenodd;clip-rule:evenodd;}
</style>
<path class="st0" d="M0,0h24v24H0V0z"/>
<g>
	<path class="st1" d="M20.2,11.6L19.5,5l-1.7,1.2c-0.5-0.6-1.1-1.1-1.7-1.5c-0.9-0.5-1.8-0.9-2.8-1.1c-0.9-0.2-2-0.2-2.9-0.1
		c-1,0.1-2,0.5-2.8,1C6.6,5.1,5.8,5.7,5.2,6.5C4.6,7.3,4,8.2,3.7,9.1C3,11,3,13.2,3.7,15c0.6,1.9,1.9,3.5,3.5,4.4
		c0.8,0.5,1.8,0.8,2.7,1c0.9,0.2,1.8,0.1,2.8,0c1.8-0.3,3.5-1.4,4.6-2.8c0.5-0.8,1-1.6,1.3-2.5c0.3-0.8,0.4-1.8,0.4-2.7
		c0,0.9-0.2,1.8-0.5,2.7c-0.3,0.8-0.8,1.6-1.3,2.3c-1.2,1.3-2.8,2.2-4.6,2.4c-0.8,0.1-1.7,0.1-2.5-0.1c-0.9-0.2-1.7-0.6-2.3-1
		c-1.4-1-2.5-2.4-2.9-4C4.3,13,4.4,11.2,5.1,9.7c0.6-1.5,1.8-2.8,3.2-3.5c0.7-0.4,1.5-0.6,2.2-0.7c0.8,0,1.6,0,2.3,0.2
		c1.1,0.3,2.3,1,3.1,1.9L14.3,9L20.2,11.6z"/>
</g>
</svg>
